<svg width="179" height="282" viewBox="0 0 179 282" fill="none" xmlns="http://www.w3.org/2000/svg">
<mask id="path-1-outside-1" maskUnits="userSpaceOnUse" x="0" y="0" width="179" height="282" fill="black">
<rect fill="white" width="179" height="282"/>
<path fill-rule="evenodd" clip-rule="evenodd" d="M66.5 5C57.9396 5 51 11.9396 51 20.5V32H25C13.9543 32 5 40.9543 5 52V257C5 268.046 13.9543 277 25 277H154C165.046 277 174 268.046 174 257V52C174 40.9543 165.046 32 154 32H128V20.5C128 11.9396 121.06 5 112.5 5H66.5Z"/>
</mask>
<path d="M51 32V37H56V32H51ZM128 32H123V37H128V32ZM56 20.5C56 14.701 60.701 10 66.5 10V0C55.1782 0 46 9.17816 46 20.5H56ZM56 32V20.5H46V32H56ZM25 37H51V27H25V37ZM10 52C10 43.7157 16.7157 37 25 37V27C11.1929 27 0 38.1929 0 52H10ZM10 257V52H0V257H10ZM25 272C16.7157 272 10 265.284 10 257H0C0 270.807 11.1929 282 25 282V272ZM154 272H25V282H154V272ZM169 257C169 265.284 162.284 272 154 272V282C167.807 282 179 270.807 179 257H169ZM169 52V257H179V52H169ZM154 37C162.284 37 169 43.7157 169 52H179C179 38.1929 167.807 27 154 27V37ZM128 37H154V27H128V37ZM123 20.5V32H133V20.5H123ZM112.5 10C118.299 10 123 14.701 123 20.5H133C133 9.17816 123.822 0 112.5 0V10ZM66.5 10H112.5V0H66.5V10Z" fill="black" mask="url(#path-1-outside-1)"/>
</svg>
